<?xml version="1.0" encoding="utf-8"?>
<!-- Generator: Adobe Illustrator 27.0.0, SVG Export Plug-In . SVG Version: 6.00 Build 0)  -->
<svg version="1.1" id="Ebene_1" xmlns="http://www.w3.org/2000/svg" xmlns:xlink="http://www.w3.org/1999/xlink" x="0px" y="0px"
	 viewBox="0 0 1000 1000" style="enable-background:new 0 0 1000 1000;" xml:space="preserve">
<path d="M854.8,143.3H722V26c0-13.8-11.2-25-25-25s-25,11.2-25,25v117.3H324.2V26c0-13.8-11.2-25-25-25s-25,11.2-25,25v117.3h-129
	c-60.6,0-109.9,49.3-109.9,109.9v636.9c0,60.6,49.3,109.9,109.9,109.9h709.7c60.6,0,109.9-49.3,109.9-109.9V253.2
	C964.7,192.6,915.4,143.3,854.8,143.3z M145.2,193.3h129v58.6c0,13.8,11.2,25,25,25s25-11.2,25-25v-58.6H672v58.6
	c0,13.8,11.2,25,25,25s25-11.2,25-25v-58.6h132.9c33,0,59.9,26.9,59.9,59.9v90.6H85.3v-90.6C85.3,220.2,112.2,193.3,145.2,193.3z
	 M854.8,950H145.2c-33,0-59.9-26.9-59.9-59.9V393.8h829.4v496.3C914.7,923.1,887.8,950,854.8,950z M347.9,590c0,20.4-16.6,37-37,37
	c-20.4,0-37-16.6-37-37c0-20.4,16.6-37,37-37C331.4,553,347.9,569.6,347.9,590z M472.3,590c0,20.4-16.6,37-37,37s-37-16.6-37-37
	c0-20.4,16.6-37,37-37S472.3,569.6,472.3,590z M596.6,590c0,20.4-16.6,37-37,37c-20.4,0-37-16.6-37-37c0-20.4,16.6-37,37-37
	C580,553,596.6,569.6,596.6,590z M720.9,590c0,20.4-16.6,37-37,37c-20.4,0-37-16.6-37-37c0-20.4,16.6-37,37-37
	C704.4,553,720.9,569.6,720.9,590z M347.9,714c0,20.4-16.6,37-37,37c-20.4,0-37-16.6-37-37c0-20.4,16.6-37,37-37
	C331.4,677,347.9,693.6,347.9,714z M472.3,714c0,20.4-16.6,37-37,37s-37-16.6-37-37c0-20.4,16.6-37,37-37S472.3,693.6,472.3,714z"/>
</svg>
