<?xml version="1.0" encoding="utf-8"?>
<!-- Generator: Adobe Illustrator 27.5.0, SVG Export Plug-In . SVG Version: 6.00 Build 0)  -->
<svg version="1.1" id="Ebene_1" xmlns="http://www.w3.org/2000/svg" xmlns:xlink="http://www.w3.org/1999/xlink" x="0px" y="0px"
	 viewBox="0 0 332.9 117.68" style="enable-background:new 0 0 332.9 117.68;" xml:space="preserve">
<style type="text/css">
	.st0{fill:#00AFB8;}
	.st1{fill:#4D4D4D;}
	.st2{fill:none;}
	.st3{fill:#FFFFFF;}
</style>
<g>
	<g>
		<path class="st0" d="M46.75,53.86c-0.41,0-0.78-0.22-1.11-0.63L34.47,37.5v15.73c0,0.41-0.22,0.63-0.63,0.63h-4.26
			c-0.41,0-0.63-0.22-0.63-0.63V28.58c0-0.41,0.22-0.63,0.63-0.63h4.29c0.44,0,0.81,0.22,1.11,0.63l11.17,15.73V28.58
			c0-0.41,0.22-0.63,0.63-0.63h4.26c0.41,0,0.63,0.22,0.63,0.63v24.64c0,0.41-0.22,0.63-0.63,0.63H46.75z"/>
	</g>
	<g>
		<path class="st0" d="M72.06,27.95c0.41,0,0.63,0.22,0.63,0.63v4.11c0,0.44-0.22,0.67-0.63,0.67h-9.99v4.92H85.4
			c0.41,0,0.63,0.22,0.63,0.67v3.92c0,0.44-0.22,0.67-0.63,0.67H62.07v4.92H72.1c0.44,0,0.67,0.22,0.67,0.67v4.11
			c0,0.41-0.22,0.63-0.67,0.63H57.19c-0.41,0-0.63-0.22-0.63-0.63V28.58c0-0.41,0.22-0.63,0.63-0.63H72.06z"/>
	</g>
	<g>
		<path class="st1" d="M106.54,53.86c-0.44,0-0.67-0.22-0.67-0.63V33.36h-6.55c-0.41,0-0.63-0.22-0.63-0.67v-4.11
			c0-0.41,0.22-0.63,0.63-0.63h18.65c0.41,0,0.63,0.22,0.63,0.63v4.11c0,0.44-0.22,0.67-0.63,0.67h-6.55v19.87
			c0,0.41-0.22,0.63-0.67,0.63H106.54z"/>
	</g>
	<g>
		<path class="st1" d="M132.92,53.86c-0.41,0-0.63-0.22-0.63-0.63V28.58c0-0.41,0.22-0.63,0.63-0.63h4.25
			c0.41,0,0.63,0.22,0.63,0.63v19.91h8.58c0.44,0,0.67,0.22,0.67,0.63v4.11c0,0.41-0.22,0.63-0.67,0.63H132.92z"/>
	</g>
	<g>
		<path class="st1" d="M165.93,27.95c0.41,0,0.63,0.22,0.63,0.63v4.11c0,0.44-0.22,0.67-0.63,0.67h-9.99v4.92h8.7
			c0.41,0,0.63,0.22,0.63,0.67v3.92c0,0.44-0.22,0.67-0.63,0.67h-8.7v4.92h10.03c0.44,0,0.67,0.22,0.67,0.67v4.11
			c0,0.41-0.22,0.63-0.67,0.63h-14.91c-0.41,0-0.63-0.22-0.63-0.63V28.58c0-0.41,0.22-0.63,0.63-0.63H165.93z"/>
	</g>
	<g>
		<path class="st1" d="M168.55,53.86c-0.44,0-0.59-0.22-0.41-0.63l7.73-24.64c0.11-0.41,0.33-0.63,0.74-0.63h5.66
			c0.37,0,0.63,0.22,0.78,0.63l7.7,24.64c0.15,0.33,0,0.63-0.41,0.63h-4.44c-0.52,0-0.85-0.22-0.96-0.67l-1.33-4.55h-8.33
			l-1.37,4.59c-0.07,0.41-0.37,0.63-0.92,0.63H168.55z M179.47,34.32l-2.96,9.21h5.88L179.47,34.32z"/>
	</g>
	<g>
		<path class="st1" d="M212.51,53.19c0.26,0.44,0.15,0.67-0.37,0.67h-4.7c-0.48,0-0.85-0.22-1.11-0.63l-5.11-7.96h-2.11v7.96
			c0,0.41-0.22,0.63-0.63,0.63h-4.26c-0.41,0-0.63-0.22-0.63-0.63V28.58c0-0.41,0.22-0.63,0.63-0.63h9.36
			c2.55,0,4.59,0.85,6.14,2.52c1.55,1.67,2.33,3.7,2.33,6.14c0,1.96-0.55,3.66-1.7,5.03c-1.11,1.37-2.26,2.29-3.48,2.74
			L212.51,53.19z M199.12,32.95v7.33h3.14c2.7,0,4.26-1.44,4.26-3.66s-1.55-3.66-4.26-3.66H199.12z"/>
	</g>
	<g>
		<path class="st1" d="M233.56,53.86c-0.41,0-0.78-0.22-1.11-0.63L221.28,37.5v15.73c0,0.41-0.22,0.63-0.63,0.63h-4.26
			c-0.41,0-0.63-0.22-0.63-0.63V28.58c0-0.41,0.22-0.63,0.63-0.63h4.29c0.44,0,0.81,0.22,1.11,0.63l11.17,15.73V28.58
			c0-0.41,0.22-0.63,0.63-0.63h4.26c0.41,0,0.63,0.22,0.63,0.63v24.64c0,0.41-0.22,0.63-0.63,0.63H233.56z"/>
	</g>
	<g>
		<path class="st1" d="M244,53.86c-0.41,0-0.63-0.22-0.63-0.63V28.58c0-0.41,0.22-0.63,0.63-0.63h4.26c0.41,0,0.63,0.22,0.63,0.63
			v24.64c0,0.41-0.22,0.63-0.63,0.63H244z"/>
	</g>
	<g>
		<path class="st1" d="M271.56,53.86c-0.41,0-0.78-0.22-1.11-0.63L259.28,37.5v15.73c0,0.41-0.22,0.63-0.63,0.63h-4.26
			c-0.41,0-0.63-0.22-0.63-0.63V28.58c0-0.41,0.22-0.63,0.63-0.63h4.29c0.44,0,0.81,0.22,1.11,0.63l11.17,15.73V28.58
			c0-0.41,0.22-0.63,0.63-0.63h4.26c0.41,0,0.63,0.22,0.63,0.63v24.64c0,0.41-0.22,0.63-0.63,0.63H271.56z"/>
	</g>
	<g>
		<path class="st1" d="M296.79,44.23h-3.66c-0.41,0-0.63-0.22-0.63-0.67v-3.29c0-0.41,0.22-0.63,0.63-0.63h8.4
			c0.44,0,0.67,0.22,0.67,0.63v11.21c0,0.33-0.18,0.63-0.52,0.81c-2.41,1.29-5.22,1.92-8.4,1.92c-3.81,0-6.99-1.26-9.51-3.81
			c-2.52-2.55-3.77-5.74-3.77-9.47c0-3.85,1.26-7.03,3.77-9.55c2.52-2.55,5.7-3.81,9.55-3.81c2.63,0,5.11,0.74,7.4,2.18
			c0.48,0.26,0.55,0.56,0.3,0.92l-2.22,3.37c-0.26,0.44-0.63,0.52-1.07,0.22c-1.41-0.89-2.89-1.33-4.44-1.33
			c-2.26,0-4.14,0.78-5.59,2.37c-1.44,1.55-2.18,3.44-2.18,5.62c0,2.18,0.74,4.07,2.22,5.62c1.52,1.52,3.37,2.29,5.55,2.29
			c1.29,0,2.48-0.26,3.51-0.74V44.23z"/>
	</g>
</g>
<g>
	<path class="st0" d="M89.13,40.79l8.51,12.43c0.26,0.33,0.07,0.63-0.33,0.63h-5.66c-0.56,0-0.93-0.22-1.15-0.63l-4.55-7.7
		l-4.88,7.7c-0.26,0.41-0.63,0.63-1.11,0.63h-5.37c-0.44,0-0.59-0.33-0.33-0.63l8.47-12.43l-8.18-12.21
		c-0.18-0.3-0.15-0.63,0.26-0.63h5.44c0.48,0,0.85,0.19,1.07,0.52l4.63,7.51 M85.94,35.99l4.55-7.51c0.22-0.33,0.59-0.52,1.07-0.52
		h5.48c0.48,0,0.55,0.22,0.26,0.63l-8.18,12.21"/>
</g>
<g>
	<path class="st1" d="M89.09,40.79l8.51,12.43c0.26,0.33,0.07,0.63-0.33,0.63h-5.66c-0.56,0-0.93-0.22-1.15-0.63l-4.55-7.7
		 M85.91,35.99l4.55-7.51c0.22-0.33,0.59-0.52,1.07-0.52h5.48c0.48,0,0.55,0.22,0.26,0.63l-8.18,12.21"/>
</g>
<g>
	<rect x="187.35" y="61.07" class="st0" width="115.61" height="32.13"/>
</g>
<g>
	<g>
		<rect x="194.42" y="64.97" class="st2" width="190.92" height="32.48"/>
	</g>
	<g>
		<path class="st3" d="M197.18,86.72c-0.29,0-0.44-0.15-0.44-0.44V66.85c0-0.29,0.15-0.44,0.44-0.44h12.5
			c0.29,0,0.44,0.15,0.44,0.44v2.38c0,0.29-0.15,0.44-0.44,0.44h-9.6v5.71h8.35c0.29,0,0.43,0.15,0.43,0.44v2.29
			c0,0.29-0.14,0.44-0.43,0.44h-8.35v7.75c0,0.29-0.14,0.44-0.43,0.44H197.18z"/>
		<path class="st3" d="M213.24,86.72c-0.29,0-0.44-0.15-0.44-0.44V66.85c0-0.29,0.15-0.44,0.44-0.44h2.47
			c0.29,0,0.43,0.15,0.43,0.44v19.43c0,0.29-0.14,0.44-0.43,0.44H213.24z"/>
		<path class="st3" d="M234.76,86.72c-0.26,0-0.52-0.15-0.75-0.44l-9.89-14.07v14.07c0,0.29-0.14,0.44-0.43,0.44h-2.47
			c-0.29,0-0.44-0.15-0.44-0.44V66.85c0-0.29,0.15-0.44,0.44-0.44h2.5c0.32,0,0.55,0.15,0.72,0.44l9.92,14.07V66.85
			c0-0.29,0.14-0.44,0.43-0.44h2.44c0.29,0,0.44,0.15,0.44,0.44v19.43c0,0.29-0.15,0.44-0.44,0.44H234.76z"/>
		<path class="st3" d="M242.73,86.72c-0.29,0-0.44-0.15-0.44-0.44V66.85c0-0.29,0.15-0.44,0.44-0.44h7.05
			c2.87,0,5.31,0.99,7.25,2.96c1.97,1.94,2.96,4.35,2.96,7.22c0,2.81-0.99,5.19-2.96,7.17c-1.94,1.97-4.38,2.96-7.25,2.96H242.73z
			 M249.67,83.48c1.94,0,3.6-0.67,4.96-2c1.36-1.33,2.06-2.96,2.06-4.87c0-2-0.7-3.65-2.06-4.96c-1.36-1.31-3.02-1.97-4.96-1.97
			h-4.03v13.81H249.67z"/>
		<path class="st3" d="M275.3,66.42c0.29,0,0.44,0.15,0.44,0.44v2.38c0,0.29-0.15,0.44-0.44,0.44h-8.64v5.31h7.63
			c0.29,0,0.43,0.15,0.43,0.44v2.29c0,0.29-0.14,0.44-0.43,0.44h-7.63v5.34h8.67c0.29,0,0.44,0.15,0.44,0.44v2.38
			c0,0.29-0.15,0.44-0.44,0.44h-11.57c-0.29,0-0.44-0.15-0.44-0.44V66.85c0-0.29,0.15-0.44,0.44-0.44H275.3z"/>
		<path class="st3" d="M293.34,86.26c0.2,0.32,0.14,0.46-0.23,0.46h-2.76c-0.29,0-0.55-0.15-0.75-0.44l-4.47-6.56h-2.55v6.56
			c0,0.29-0.15,0.44-0.44,0.44h-2.46c-0.29,0-0.44-0.15-0.44-0.44V66.85c0-0.29,0.15-0.44,0.44-0.44h6.76
			c1.97,0,3.57,0.64,4.82,1.91c1.25,1.25,1.86,2.84,1.86,4.73c0,1.68-0.49,3.07-1.48,4.15s-2,1.74-3.05,2.03L293.34,86.26z
			 M282.58,69.44v7.28h3.13c2.52,0,4.06-1.54,4.06-3.65c0-2.09-1.54-3.63-4.06-3.63H282.58z"/>
	</g>
</g>
</svg>
