<?xml version="1.0" encoding="utf-8"?>
<!-- Generator: Adobe Illustrator 26.3.1, SVG Export Plug-In . SVG Version: 6.00 Build 0)  -->
<svg version="1.1" id="Ebene_1" xmlns="http://www.w3.org/2000/svg" xmlns:xlink="http://www.w3.org/1999/xlink" x="0px" y="0px"
	 viewBox="0 0 244 56" style="enable-background:new 0 0 244 56;" xml:space="preserve">
<style type="text/css">
	.st0{fill:#00AFB8;}
	.st1{fill:#012F6B;}
	.st2{fill:#C3D600;}
</style>
<g>
	<path d="M7.3,38.7l2.9-12.1l0.6,2.7l2.3,9.4h2.5l4.5-15.7h-2.4L15.2,32l-0.8,3l-0.7-3l-2.2-9.1H9l-2.3,9.2c-0.5,2-0.7,3.1-0.7,3.2
		L5.1,32l-2.3-9.1H0.3l4.4,15.7H7.3L7.3,38.7z M30.5,36.1c-0.6,0.5-1.4,0.8-2.3,0.8c-1.2,0-2.2-0.5-3-1.4c-0.8-0.9-1.3-2.2-1.3-4
		h10.7c0-0.3,0-0.6,0-0.7c0-2.6-0.6-4.6-1.8-6.1c-1.2-1.4-2.8-2.2-4.7-2.2c-2,0-3.6,0.7-4.9,2.2c-1.2,1.5-1.9,3.5-1.9,6.2
		c0,2.6,0.6,4.6,1.8,6c1.2,1.4,2.9,2.1,5,2.1c1.7,0,3-0.4,4.1-1.3c1.1-0.9,1.8-2.1,2.2-3.8L32,33.6C31.6,34.7,31.1,35.6,30.5,36.1
		L30.5,36.1z M25.2,26c0.8-0.8,1.7-1.2,2.8-1.2c1.2,0,2.2,0.5,3,1.5c0.5,0.7,0.8,1.7,0.9,3h-8C24,27.9,24.5,26.8,25.2,26L25.2,26z
		 M40,20v-3.1h-2.4V20H40L40,20z M40,38.7V22.9h-2.4v15.7H40L40,38.7z M48,36.4c-0.4,0-0.6-0.1-0.8-0.2c-0.2-0.1-0.3-0.3-0.4-0.5
		c-0.1-0.2-0.1-0.7-0.1-1.5V25H49v-2.1h-2.5v-5.5L44.2,19v3.9h-1.8V25h1.8v9.1c0,1.6,0.1,2.7,0.3,3.2c0.2,0.5,0.5,0.9,1,1.2
		c0.5,0.3,1.2,0.5,2.1,0.5c0.5,0,1.2-0.1,1.8-0.2L49,36.3C48.6,36.4,48.2,36.4,48,36.4L48,36.4L48,36.4z M59.8,36.1
		c-0.6,0.5-1.4,0.8-2.3,0.8c-1.2,0-2.2-0.5-3-1.4c-0.8-0.9-1.3-2.2-1.3-4h10.7c0-0.3,0-0.6,0-0.7c0-2.6-0.6-4.6-1.8-6.1
		c-1.2-1.4-2.8-2.2-4.7-2.2c-2,0-3.6,0.7-4.9,2.2c-1.2,1.5-1.9,3.5-1.9,6.2c0,2.6,0.6,4.6,1.8,6c1.2,1.4,2.9,2.1,5,2.1
		c1.7,0,3-0.4,4.1-1.3c1.1-0.9,1.8-2.1,2.2-3.8l-2.5-0.3C60.9,34.7,60.4,35.6,59.8,36.1L59.8,36.1z M54.5,26
		c0.8-0.8,1.7-1.2,2.8-1.2c1.2,0,2.2,0.5,3,1.5c0.5,0.7,0.8,1.7,0.9,3h-8C53.3,27.9,53.8,26.8,54.5,26L54.5,26z M69.3,38.7v-8.2
		c0-1.1,0.1-2.2,0.4-3.1c0.2-0.6,0.5-1.1,0.9-1.5c0.4-0.4,0.9-0.5,1.4-0.5c0.6,0,1.2,0.2,1.8,0.6l0.8-2.5c-0.8-0.6-1.7-0.9-2.5-0.9
		c-0.6,0-1.1,0.2-1.6,0.5c-0.5,0.4-1,1.1-1.6,2.2v-2.4h-2.2v15.7H69.3L69.3,38.7z M78.3,36.7c1,1.6,2.3,2.3,4,2.3
		c1.7,0,3.2-0.7,4.4-2.2c1.2-1.5,1.8-3.6,1.8-6.3c0-1.1-0.1-2.2-0.4-3.2c-0.3-1-0.7-1.9-1.2-2.6c-0.5-0.7-1.2-1.3-2-1.6
		c-0.8-0.4-1.6-0.6-2.5-0.6c-1.6,0-2.9,0.7-3.9,2.1v-7.8h-2.4v21.7h2.3V36.7L78.3,36.7z M79.5,26.3c0.8-1,1.7-1.5,2.8-1.5
		c1.1,0,2,0.5,2.7,1.5c0.7,1,1.1,2.5,1.1,4.6c0,2-0.4,3.5-1.2,4.5c-0.8,1-1.7,1.5-2.8,1.5c-1.3,0-2.3-0.7-3.1-2.1
		c-0.5-0.8-0.7-2.2-0.7-4.1C78.3,28.8,78.7,27.3,79.5,26.3L79.5,26.3z M94,20v-3.1h-2.4V20H94L94,20z M94,38.7V22.9h-2.4v15.7H94
		L94,38.7z M100.1,38.7V16.9h-2.4v21.7H100.1L100.1,38.7z M115.4,38.7V16.9H113v7.8c-0.4-0.6-1-1.2-1.7-1.6
		c-0.7-0.4-1.4-0.6-2.3-0.6c-1.2,0-2.3,0.3-3.2,1c-1,0.7-1.7,1.7-2.2,2.9c-0.5,1.3-0.7,2.7-0.7,4.3c0,1.6,0.3,3,0.8,4.3
		c0.5,1.2,1.3,2.2,2.2,2.9c1,0.7,2,1,3.2,1c1.8,0,3.1-0.8,4-2.3v2H115.4L115.4,38.7z M106.6,26.2c0.7-1,1.6-1.5,2.7-1.5
		c1.1,0,2,0.5,2.8,1.5c0.8,1,1.1,2.6,1.1,4.7c0,2-0.4,3.4-1.1,4.4c-0.7,1-1.7,1.4-2.7,1.4c-1.1,0-2-0.5-2.8-1.5
		c-0.8-1-1.2-2.5-1.2-4.5C105.5,28.7,105.8,27.2,106.6,26.2L106.6,26.2z M130.9,38.7V22.9h-2.4v8.4c0,1.3-0.1,2.4-0.4,3.1
		c-0.3,0.7-0.7,1.3-1.4,1.7c-0.6,0.4-1.3,0.6-2.1,0.6s-1.3-0.2-1.8-0.6c-0.5-0.4-0.8-1-1-1.7c-0.1-0.5-0.1-1.4-0.1-2.8v-8.7h-2.4
		v9.8c0,1.1,0,2,0.1,2.5c0.1,0.8,0.4,1.4,0.8,2c0.4,0.5,0.9,1,1.6,1.3c0.7,0.4,1.5,0.5,2.4,0.5c1.9,0,3.4-0.9,4.6-2.7v2.3H130.9
		L130.9,38.7z M137.2,38.7v-8.6c0-2,0.4-3.4,1.1-4.1c0.8-0.7,1.7-1.1,2.7-1.1c0.7,0,1.2,0.2,1.7,0.5c0.5,0.3,0.8,0.8,1,1.3
		c0.2,0.5,0.3,1.4,0.3,2.4v9.6h2.4V29c0-1.2,0-2.1-0.1-2.6c-0.1-0.8-0.4-1.4-0.8-2c-0.4-0.6-0.9-1-1.6-1.3c-0.7-0.3-1.5-0.5-2.4-0.5
		c-2,0-3.5,0.9-4.6,2.6v-2.2h-2.2v15.7H137.2L137.2,38.7z M151.2,43.8c1.1,0.8,2.4,1.3,4.2,1.3c1.4,0,2.7-0.3,3.7-0.9
		s1.7-1.4,2.2-2.4c0.5-1,0.7-2.8,0.7-5.2V22.9h-2.2v1.9c-1.1-1.5-2.5-2.3-4.2-2.3c-1.3,0-2.4,0.3-3.3,1c-0.9,0.7-1.7,1.7-2.2,2.9
		c-0.5,1.3-0.7,2.7-0.7,4.2c0,2.2,0.5,4.1,1.6,5.6c1.1,1.6,2.6,2.3,4.6,2.3c1.6,0,2.9-0.7,4-2.1c0,1.7,0,2.9-0.2,3.4
		c-0.2,0.9-0.6,1.6-1.2,2.1c-0.6,0.5-1.5,0.7-2.6,0.7c-1,0-1.9-0.2-2.5-0.7c-0.5-0.4-0.7-0.9-0.8-1.7l-2.4-0.4
		C149.7,41.7,150.2,43,151.2,43.8L151.2,43.8z M152.9,26.2c0.8-1,1.7-1.4,2.8-1.4c1.1,0,2,0.5,2.8,1.5c0.8,1,1.2,2.4,1.2,4.4
		c0,2-0.4,3.5-1.1,4.4c-0.8,0.9-1.7,1.4-2.8,1.4c-1.1,0-2.1-0.5-2.8-1.4c-0.7-0.9-1.1-2.5-1.1-4.5C151.7,28.6,152.1,27.2,152.9,26.2
		L152.9,26.2z"/>
	<path d="M224.9,17l-4.1,18.3L216.7,17H214l-4.1,18.1L205.8,17h-2.7l5.2,21.8h2.9l4-18.1l4.1,18.1h2.9l5.1-21.8H224.9L224.9,17z
		 M243.8,36.2h-9.8V17h-2.6v21.8h12.4V36.2L243.8,36.2z"/>
	<path class="st0" d="M200.6,27.6c0,1.8-0.1,3.4-0.4,4.9c-0.3,1.4-0.8,2.6-1.4,3.5c-0.6,0.9-1.5,1.6-2.4,2.1c-1,0.5-2.2,0.7-3.7,0.7
		c-1.4,0-2.7-0.2-3.7-0.7c-1-0.5-1.8-1.2-2.5-2.1c-0.6-0.9-1.1-2.1-1.4-3.5c-0.3-1.4-0.4-3-0.4-4.8c0-1.9,0.1-3.5,0.4-4.9
		c0.3-1.4,0.8-2.5,1.4-3.5c0.6-0.9,1.5-1.7,2.5-2.1c1-0.5,2.2-0.7,3.6-0.7c1.5,0,2.7,0.2,3.7,0.7c1,0.5,1.8,1.2,2.4,2.2
		c0.6,0.9,1.1,2.1,1.4,3.5C200.5,24.2,200.6,25.8,200.6,27.6L200.6,27.6z M195.6,27.6c0-2.6-0.2-4.5-0.7-5.6
		c-0.5-1.1-1.2-1.7-2.3-1.7c-1.1,0-1.8,0.6-2.3,1.7c-0.5,1.1-0.7,3-0.7,5.6c0,2.6,0.2,4.4,0.7,5.5c0.5,1.1,1.2,1.7,2.3,1.7
		c1,0,1.8-0.6,2.3-1.7C195.4,32,195.6,30.1,195.6,27.6L195.6,27.6z M195.6,27.6"/>
	<path class="st0" d="M178.4,33.7h-2.1v5.1h-3.7v-5.1h-7.3v-4.1l5.5-12.6h5.5v12.8h2.1V33.7z M172.7,29.8v-7.9l-3.5,7.9H172.7z
		 M172.7,29.8"/>
	<rect x="179.8" y="34.9" class="st0" width="3.7" height="3.9"/>
	<path class="st1" d="M176.5,10.9V3.5H191v7.2h3.5V0.3h-21.3v10.6H176.5z M176.5,10.9"/>
	<path class="st2" d="M191,44.6v7.3h-14.5v-7.2h-3.5v10.5h21.3V44.6H191z M191,44.6"/>
</g>
</svg>
