<?xml version="1.0" encoding="utf-8"?>
<!-- Generator: Adobe Illustrator 27.7.0, SVG Export Plug-In . SVG Version: 6.00 Build 0)  -->
<svg version="1.1" id="Ebene_1" xmlns="http://www.w3.org/2000/svg" xmlns:xlink="http://www.w3.org/1999/xlink" x="0px" y="0px"
	 viewBox="0 0 332.9 117.7" style="enable-background:new 0 0 332.9 117.7;" xml:space="preserve">
<style type="text/css">
	.st0{fill:#FFFFFF;}
</style>
<g>
	<path class="st0" d="M51,28h-4.3c-0.4,0-0.6,0.2-0.6,0.6v15.7L35,28.6c-0.3-0.4-0.7-0.6-1.1-0.6h-4.3c-0.4,0-0.6,0.2-0.6,0.6v24.6
		c0,0.4,0.2,0.6,0.6,0.6h4.3c0.4,0,0.6-0.2,0.6-0.6V37.5l11.2,15.7c0.3,0.4,0.7,0.6,1.1,0.6v0H51c0.4,0,0.6-0.2,0.6-0.6V28.6
		C51.7,28.2,51.5,28,51,28z"/>
	<path class="st0" d="M118,28H99.3c-0.4,0-0.6,0.2-0.6,0.6v4.1c0,0.5,0.2,0.7,0.6,0.7h6.5v19.9c0,0.4,0.2,0.6,0.7,0.6h4.2
		c0.5,0,0.7-0.2,0.7-0.6V33.4h6.6c0.4,0,0.6-0.2,0.6-0.7v-4.1C118.6,28.2,118.4,28,118,28z"/>
	<path class="st0" d="M146.4,48.5h-8.6V28.6c0-0.4-0.2-0.6-0.6-0.6h-4.2c-0.4,0-0.6,0.2-0.6,0.6v24.6c0,0.4,0.2,0.6,0.6,0.6h13.5
		c0.5,0,0.7-0.2,0.7-0.6v-4.1C147,48.7,146.8,48.5,146.4,48.5z"/>
	<path class="st0" d="M166,48.5h-10v-4.9h8.7c0.4,0,0.6-0.2,0.6-0.7V39c0-0.5-0.2-0.7-0.6-0.7h-8.7v-4.9h10c0.4,0,0.6-0.2,0.6-0.7
		v-4.1c0-0.4-0.2-0.6-0.6-0.6h-14.9c-0.4,0-0.6,0.2-0.6,0.6v24.7c0,0.4,0.2,0.6,0.6,0.6H166c0.5,0,0.7-0.2,0.7-0.6v-4.1
		C166.6,48.7,166.4,48.5,166,48.5z"/>
	<path class="st0" d="M190.8,53.2L183,28.6c-0.1-0.4-0.4-0.6-0.8-0.6h-5.7c-0.4,0-0.6,0.2-0.7,0.6l-7.7,24.6c-0.2,0.4,0,0.6,0.4,0.6
		h4.4c0.5,0,0.8-0.2,0.9-0.6l1.4-4.6h8.3l1.3,4.5c0.1,0.5,0.4,0.7,1,0.7h4.4C190.8,53.9,190.9,53.6,190.8,53.2z M176.5,43.5l3-9.2
		l2.9,9.2H176.5z"/>
	<path class="st0" d="M194.2,53.9h4.3c0.4,0,0.6-0.2,0.6-0.6v-8h2.1l5.1,8c0.3,0.4,0.6,0.6,1.1,0.6h4.7c0.5,0,0.6-0.2,0.4-0.7
		l-5.6-8.8c1.2-0.5,2.4-1.4,3.5-2.7c1.1-1.4,1.7-3.1,1.7-5c0-2.4-0.8-4.5-2.3-6.1c-1.6-1.7-3.6-2.5-6.1-2.5h-9.4
		c-0.4,0-0.6,0.2-0.6,0.6v24.6C193.6,53.6,193.8,53.9,194.2,53.9z M199.1,33h3.1c2.7,0,4.3,1.4,4.3,3.7c0,2.2-1.6,3.7-4.3,3.7h-3.1
		V33z"/>
	<path class="st0" d="M216.4,53.9h4.3c0.4,0,0.6-0.2,0.6-0.6V37.5l11.2,15.7c0.3,0.4,0.7,0.6,1.1,0.6v0h4.3c0.4,0,0.6-0.2,0.6-0.6
		V28.6c0-0.4-0.2-0.6-0.6-0.6h-4.3c-0.4,0-0.6,0.2-0.6,0.6v15.7l-11.2-15.7c-0.3-0.4-0.7-0.6-1.1-0.6h-4.3c-0.4,0-0.6,0.2-0.6,0.6
		v24.6C215.8,53.6,216,53.9,216.4,53.9z"/>
	<path class="st0" d="M244,53.9L244,53.9l4.3,0c0.4,0,0.6-0.2,0.6-0.6V28.6c0-0.4-0.2-0.6-0.6-0.6H244c-0.4,0-0.6,0.2-0.6,0.6v24.6
		C243.4,53.6,243.6,53.9,244,53.9z"/>
	<path class="st0" d="M254.4,53.9h4.3c0.4,0,0.6-0.2,0.6-0.6V37.5l11.2,15.7c0.3,0.4,0.7,0.6,1.1,0.6v0h4.3c0.4,0,0.6-0.2,0.6-0.6
		V28.6c0-0.4-0.2-0.6-0.6-0.6h-4.3c-0.4,0-0.6,0.2-0.6,0.6v15.7l-11.2-15.7c-0.3-0.4-0.7-0.6-1.1-0.6h-4.3c-0.4,0-0.6,0.2-0.6,0.6
		v24.6C253.8,53.6,254,53.9,254.4,53.9z"/>
	<path class="st0" d="M293.3,54.2c3.2,0,6-0.6,8.4-1.9c0.3-0.2,0.5-0.5,0.5-0.8V40.3c0-0.4-0.2-0.6-0.7-0.6h-8.4
		c-0.4,0-0.6,0.2-0.6,0.6v3.3c0,0.5,0.2,0.7,0.6,0.7h3.7h0v3.9c-1,0.5-2.2,0.7-3.5,0.7c-2.2,0-4-0.8-5.5-2.3
		c-1.5-1.5-2.2-3.4-2.2-5.6s0.7-4.1,2.2-5.6c1.4-1.6,3.3-2.4,5.6-2.4c1.5,0,3,0.4,4.4,1.3c0.4,0.3,0.8,0.2,1.1-0.2l2.2-3.4
		c0.2-0.4,0.2-0.7-0.3-0.9c-2.3-1.4-4.8-2.2-7.4-2.2c-3.8,0-7,1.3-9.5,3.8c-2.5,2.5-3.8,5.7-3.8,9.5c0,3.7,1.2,6.9,3.8,9.5
		C286.3,53,289.5,54.2,293.3,54.2z"/>
	<path class="st0" d="M89.1,40.8L89.1,40.8l8.2-12.2c0.3-0.4,0.2-0.6-0.3-0.6h0h-5.5h0c-0.5,0-0.9,0.2-1.1,0.5L85.9,36l-4.6-7.5
		c-0.2-0.3-0.6-0.5-1.1-0.5h-5.4c-0.4,0-0.4,0.3-0.3,0.6l6.5,9.7h-19v-4.9h10c0.4,0,0.6-0.2,0.6-0.7v-4.1c0-0.4-0.2-0.6-0.6-0.6
		H57.2c-0.4,0-0.6,0.2-0.6,0.6v24.7c0,0.4,0.2,0.6,0.6,0.6h14.9c0.5,0,0.7-0.2,0.7-0.6v-4.1c0-0.5-0.2-0.7-0.7-0.7h-10v-4.9h18.8
		l-6.6,9.7c-0.3,0.3-0.1,0.6,0.3,0.6H80c0.5,0,0.8-0.2,1.1-0.6l4.9-7.7l4.5,7.7c0.2,0.4,0.6,0.6,1.1,0.6h0h5.6h0
		c0.4,0,0.6-0.3,0.3-0.6L89.1,40.8z"/>
	<path class="st0" d="M249.7,69.7h-4v13.8h4v0c1.9,0,3.6-0.7,5-2s2.1-3,2.1-4.9c0-2-0.7-3.7-2.1-5S251.6,69.7,249.7,69.7z"/>
	<path class="st0" d="M289.8,73.1c0-2.1-1.5-3.6-4.1-3.6h-3.1v7.3h3.1C288.2,76.7,289.8,75.2,289.8,73.1z"/>
	<path class="st0" d="M187.4,61.1v32.1H303V61.1H187.4z M210.1,69.2c0,0.3-0.1,0.4-0.4,0.4h-9.6v5.7h8.3c0.3,0,0.4,0.1,0.4,0.4v2.3
		c0,0.3-0.1,0.4-0.4,0.4h-8.3v7.8c0,0.3-0.1,0.4-0.4,0.4h-2.5v0c-0.3,0-0.4-0.1-0.4-0.4V66.8c0-0.3,0.2-0.4,0.4-0.4h12.5
		c0.3,0,0.4,0.2,0.4,0.4V69.2z M216.1,86.3c0,0.3-0.1,0.4-0.4,0.4h-2.5c-0.3,0-0.4-0.1-0.4-0.4V66.8c0-0.3,0.2-0.4,0.4-0.4h2.5
		c0.3,0,0.4,0.2,0.4,0.4V86.3z M237.7,86.3c0,0.3-0.1,0.4-0.4,0.4h-2.5c-0.3,0-0.5-0.1-0.8-0.4l-9.9-14.1v14.1
		c0,0.3-0.1,0.4-0.4,0.4h-2.5c-0.3,0-0.4-0.1-0.4-0.4V66.8c0-0.3,0.1-0.4,0.4-0.4h2.5c0.3,0,0.5,0.2,0.7,0.4l9.9,14.1V66.8
		c0-0.3,0.1-0.4,0.4-0.4h2.4c0.3,0,0.4,0.2,0.4,0.4V86.3z M257,83.8c-1.9,2-4.4,3-7.2,3h-7.1c-0.3,0-0.4-0.1-0.4-0.4V66.8
		c0-0.3,0.2-0.4,0.4-0.4h7.1c2.9,0,5.3,1,7.2,3c2,1.9,3,4.3,3,7.2C260,79.4,259,81.8,257,83.8z M275.8,86.3c0,0.3-0.2,0.4-0.4,0.4
		h-11.6c-0.3,0-0.4-0.2-0.4-0.4V66.8c0-0.3,0.1-0.4,0.4-0.4h11.5v0c0.3,0,0.4,0.2,0.4,0.4v2.4c0,0.3-0.1,0.4-0.4,0.4h-8.6V75h7.6
		c0.3,0,0.4,0.2,0.4,0.4v2.3c0,0.3-0.1,0.4-0.4,0.4h-7.6v5.3h8.7c0.3,0,0.4,0.1,0.4,0.4V86.3z M293.1,86.7h-2.8
		c-0.3,0-0.5-0.1-0.8-0.4l-4.5-6.6h-2.5v6.6c0,0.3-0.2,0.4-0.4,0.4h-2.5c-0.3,0-0.4-0.1-0.4-0.4V66.8c0-0.3,0.2-0.4,0.4-0.4h6.8
		c2,0,3.6,0.6,4.8,1.9c1.2,1.2,1.9,2.8,1.9,4.7c0,1.7-0.5,3.1-1.5,4.2c-1,1.1-2,1.7-3,2l4.8,7C293.5,86.6,293.5,86.7,293.1,86.7z"/>
</g>
</svg>
