<?xml version="1.0" encoding="utf-8"?>
<!-- Generator: Adobe Illustrator 27.5.0, SVG Export Plug-In . SVG Version: 6.00 Build 0)  -->
<svg version="1.1" id="Ebene_1" xmlns="http://www.w3.org/2000/svg" xmlns:xlink="http://www.w3.org/1999/xlink" x="0px" y="0px"
	 viewBox="0 0 332.9 117.68" style="enable-background:new 0 0 332.9 117.68;" xml:space="preserve">
<style type="text/css">
	.st0{fill:#00AFB8;}
	.st1{fill:#4D4D4D;}
	.st2{fill:#FFFFFF;}
</style>
<g>
	<g>
		<path class="st0" d="M46.73,53.9c-0.41,0-0.78-0.22-1.11-0.63L34.45,37.55v15.73c0,0.41-0.22,0.63-0.63,0.63h-4.26
			c-0.41,0-0.63-0.22-0.63-0.63V28.63c0-0.41,0.22-0.63,0.63-0.63h4.29c0.44,0,0.81,0.22,1.11,0.63l11.17,15.73V28.63
			c0-0.41,0.22-0.63,0.63-0.63h4.26c0.41,0,0.63,0.22,0.63,0.63v24.64c0,0.41-0.22,0.63-0.63,0.63H46.73z"/>
	</g>
	<g>
		<path class="st0" d="M72.04,28c0.41,0,0.63,0.22,0.63,0.63v4.11c0,0.44-0.22,0.67-0.63,0.67h-9.99v4.92h23.33
			c0.41,0,0.63,0.22,0.63,0.67v3.92c0,0.44-0.22,0.67-0.63,0.67H62.05v4.92h10.03c0.44,0,0.67,0.22,0.67,0.67v4.11
			c0,0.41-0.22,0.63-0.67,0.63H57.16c-0.41,0-0.63-0.22-0.63-0.63V28.63c0-0.41,0.22-0.63,0.63-0.63H72.04z"/>
	</g>
	<g>
		<path class="st1" d="M106.52,53.9c-0.44,0-0.67-0.22-0.67-0.63V33.41h-6.55c-0.41,0-0.63-0.22-0.63-0.67v-4.11
			c0-0.41,0.22-0.63,0.63-0.63h18.65c0.41,0,0.63,0.22,0.63,0.63v4.11c0,0.44-0.22,0.67-0.63,0.67h-6.55v19.87
			c0,0.41-0.22,0.63-0.67,0.63H106.52z"/>
	</g>
	<g>
		<path class="st1" d="M132.9,53.9c-0.41,0-0.63-0.22-0.63-0.63V28.63c0-0.41,0.22-0.63,0.63-0.63h4.25c0.41,0,0.63,0.22,0.63,0.63
			v19.91h8.58c0.44,0,0.67,0.22,0.67,0.63v4.11c0,0.41-0.22,0.63-0.67,0.63H132.9z"/>
	</g>
	<g>
		<path class="st1" d="M165.91,28c0.41,0,0.63,0.22,0.63,0.63v4.11c0,0.44-0.22,0.67-0.63,0.67h-9.99v4.92h8.7
			c0.41,0,0.63,0.22,0.63,0.67v3.92c0,0.44-0.22,0.67-0.63,0.67h-8.7v4.92h10.03c0.44,0,0.67,0.22,0.67,0.67v4.11
			c0,0.41-0.22,0.63-0.67,0.63h-14.91c-0.41,0-0.63-0.22-0.63-0.63V28.63c0-0.41,0.22-0.63,0.63-0.63H165.91z"/>
	</g>
	<g>
		<path class="st1" d="M168.53,53.9c-0.44,0-0.59-0.22-0.41-0.63l7.73-24.64c0.11-0.41,0.33-0.63,0.74-0.63h5.66
			c0.37,0,0.63,0.22,0.78,0.63l7.7,24.64c0.15,0.33,0,0.63-0.41,0.63h-4.44c-0.52,0-0.85-0.22-0.96-0.67l-1.33-4.55h-8.33
			l-1.37,4.59c-0.07,0.41-0.37,0.63-0.92,0.63H168.53z M179.45,34.37l-2.96,9.21h5.88L179.45,34.37z"/>
	</g>
	<g>
		<path class="st1" d="M212.49,53.24c0.26,0.44,0.15,0.67-0.37,0.67h-4.7c-0.48,0-0.85-0.22-1.11-0.63l-5.11-7.96h-2.11v7.96
			c0,0.41-0.22,0.63-0.63,0.63h-4.26c-0.41,0-0.63-0.22-0.63-0.63V28.63c0-0.41,0.22-0.63,0.63-0.63h9.36
			c2.55,0,4.59,0.85,6.14,2.52c1.55,1.67,2.33,3.7,2.33,6.14c0,1.96-0.55,3.66-1.7,5.03c-1.11,1.37-2.26,2.29-3.48,2.74
			L212.49,53.24z M199.09,33v7.33h3.14c2.7,0,4.26-1.44,4.26-3.66S204.94,33,202.24,33H199.09z"/>
	</g>
	<g>
		<path class="st1" d="M233.54,53.9c-0.41,0-0.78-0.22-1.11-0.63l-11.17-15.73v15.73c0,0.41-0.22,0.63-0.63,0.63h-4.26
			c-0.41,0-0.63-0.22-0.63-0.63V28.63c0-0.41,0.22-0.63,0.63-0.63h4.29c0.44,0,0.81,0.22,1.11,0.63l11.17,15.73V28.63
			c0-0.41,0.22-0.63,0.63-0.63h4.26c0.41,0,0.63,0.22,0.63,0.63v24.64c0,0.41-0.22,0.63-0.63,0.63H233.54z"/>
	</g>
	<g>
		<path class="st1" d="M243.97,53.9c-0.41,0-0.63-0.22-0.63-0.63V28.63c0-0.41,0.22-0.63,0.63-0.63h4.26c0.41,0,0.63,0.22,0.63,0.63
			v24.64c0,0.41-0.22,0.63-0.63,0.63H243.97z"/>
	</g>
	<g>
		<path class="st1" d="M271.54,53.9c-0.41,0-0.78-0.22-1.11-0.63l-11.17-15.73v15.73c0,0.41-0.22,0.63-0.63,0.63h-4.26
			c-0.41,0-0.63-0.22-0.63-0.63V28.63c0-0.41,0.22-0.63,0.63-0.63h4.29c0.44,0,0.81,0.22,1.11,0.63l11.17,15.73V28.63
			c0-0.41,0.22-0.63,0.63-0.63h4.26c0.41,0,0.63,0.22,0.63,0.63v24.64c0,0.41-0.22,0.63-0.63,0.63H271.54z"/>
	</g>
	<g>
		<path class="st1" d="M296.77,44.28h-3.66c-0.41,0-0.63-0.22-0.63-0.67v-3.29c0-0.41,0.22-0.63,0.63-0.63h8.4
			c0.44,0,0.67,0.22,0.67,0.63v11.21c0,0.33-0.18,0.63-0.52,0.81c-2.41,1.29-5.22,1.92-8.4,1.92c-3.81,0-6.99-1.26-9.51-3.81
			c-2.52-2.55-3.77-5.74-3.77-9.47c0-3.85,1.26-7.03,3.77-9.55c2.52-2.55,5.7-3.81,9.55-3.81c2.63,0,5.11,0.74,7.4,2.18
			c0.48,0.26,0.55,0.56,0.3,0.92l-2.22,3.37c-0.26,0.44-0.63,0.52-1.07,0.22c-1.41-0.89-2.89-1.33-4.44-1.33
			c-2.26,0-4.14,0.78-5.59,2.37c-1.44,1.55-2.18,3.44-2.18,5.62c0,2.18,0.74,4.07,2.22,5.62c1.52,1.52,3.37,2.29,5.55,2.29
			c1.29,0,2.48-0.26,3.51-0.74V44.28z"/>
	</g>
</g>
<g>
	<path class="st0" d="M89.1,40.84l8.51,12.43c0.26,0.33,0.07,0.63-0.33,0.63h-5.66c-0.56,0-0.93-0.22-1.15-0.63l-4.55-7.7l-4.88,7.7
		c-0.26,0.41-0.63,0.63-1.11,0.63h-5.37c-0.44,0-0.59-0.33-0.33-0.63l8.47-12.43l-8.18-12.21c-0.18-0.3-0.15-0.63,0.26-0.63h5.44
		c0.48,0,0.85,0.19,1.07,0.52l4.63,7.51 M85.92,36.03l4.55-7.51c0.22-0.33,0.59-0.52,1.07-0.52h5.48c0.48,0,0.55,0.22,0.26,0.63
		L89.1,40.84"/>
</g>
<g>
	<path class="st1" d="M89.07,40.84l8.51,12.43c0.26,0.33,0.07,0.63-0.33,0.63h-5.66c-0.56,0-0.93-0.22-1.15-0.63l-4.55-7.7
		 M85.89,36.03l4.55-7.51c0.22-0.33,0.59-0.52,1.07-0.52h5.48c0.48,0,0.55,0.22,0.26,0.63l-8.18,12.21"/>
</g>
<g>
	<rect x="166.36" y="61.13" class="st0" width="136.58" height="32.13"/>
</g>
<g>
	<path class="st2" d="M187.81,70.3c-0.17,0.29-0.41,0.35-0.72,0.15c-1.13-0.7-2.38-1.04-3.74-1.04c-2,0-3.68,0.7-5.05,2.12
		c-1.33,1.39-2,3.1-2,5.13c0,2,0.67,3.71,2,5.11c1.36,1.36,3.05,2.06,5.05,2.06c1.45,0,2.73-0.35,3.8-1.07
		c0.32-0.2,0.52-0.17,0.67,0.12l1.31,1.94c0.17,0.29,0.12,0.52-0.15,0.67c-1.77,1.07-3.62,1.6-5.63,1.6c-2.99,0-5.45-0.99-7.43-2.99
		s-2.96-4.5-2.96-7.43c0-2.96,0.99-5.45,2.96-7.45s4.44-3.02,7.43-3.02c2.06,0,3.92,0.52,5.54,1.54c0.26,0.17,0.35,0.38,0.2,0.64
		L187.81,70.3z"/>
	<path class="st2" d="M207.1,86.31c0.2,0.32,0.15,0.46-0.23,0.46h-2.76c-0.29,0-0.55-0.15-0.75-0.44l-4.47-6.56h-2.55v6.56
		c0,0.29-0.14,0.44-0.43,0.44h-2.47c-0.29,0-0.44-0.15-0.44-0.44V66.9c0-0.29,0.15-0.44,0.44-0.44h6.76c1.97,0,3.57,0.64,4.82,1.91
		c1.25,1.25,1.86,2.84,1.86,4.73c0,1.68-0.49,3.07-1.48,4.15s-2,1.74-3.05,2.03L207.1,86.31z M196.34,69.48v7.28h3.13
		c2.52,0,4.06-1.54,4.06-3.65c0-2.09-1.54-3.63-4.06-3.63H196.34z"/>
	<path class="st2" d="M222.38,66.47c0.29,0,0.43,0.15,0.43,0.44v2.38c0,0.29-0.15,0.44-0.43,0.44h-8.64v5.31h7.63
		c0.29,0,0.44,0.15,0.44,0.44v2.29c0,0.29-0.15,0.44-0.44,0.44h-7.63v5.34h8.67c0.29,0,0.43,0.15,0.43,0.44v2.38
		c0,0.29-0.15,0.44-0.43,0.44h-11.57c-0.29,0-0.44-0.15-0.44-0.44V66.9c0-0.29,0.15-0.44,0.44-0.44H222.38z"/>
	<path class="st2" d="M224.78,86.77c-0.29,0-0.38-0.15-0.29-0.44l6.38-19.43c0.09-0.29,0.26-0.44,0.52-0.44h3.31
		c0.26,0,0.43,0.15,0.52,0.44l6.38,19.43c0.12,0.29,0,0.44-0.32,0.44h-2.58c-0.32,0-0.55-0.17-0.64-0.49l-1.36-4.21h-7.34L228,86.34
		c-0.09,0.29-0.29,0.44-0.64,0.44H224.78z M233.05,70.35l-2.9,8.62h5.8L233.05,70.35z"/>
	<path class="st2" d="M246.62,86.77c-0.29,0-0.44-0.15-0.44-0.44V69.72h-5.6c-0.29,0-0.43-0.15-0.43-0.44V66.9
		c0-0.29,0.14-0.44,0.43-0.44h14.53c0.29,0,0.44,0.15,0.44,0.44v2.38c0,0.29-0.14,0.44-0.44,0.44h-5.6v16.62
		c0,0.29-0.15,0.44-0.44,0.44H246.62z"/>
	<path class="st2" d="M274.32,69.22c2,2,3.02,4.5,3.02,7.43s-1.02,5.4-3.02,7.4s-4.47,3.02-7.4,3.02s-5.4-0.99-7.4-2.99
		c-2-2-2.99-4.5-2.99-7.43s0.99-5.42,2.99-7.43c2-2.03,4.47-3.05,7.4-3.05S272.32,67.19,274.32,69.22z M271.97,81.75
		c1.36-1.39,2.06-3.1,2.06-5.11s-0.7-3.71-2.06-5.13s-3.04-2.12-5.05-2.12s-3.68,0.7-5.05,2.12c-1.33,1.39-2,3.1-2,5.13
		c0,2,0.67,3.71,2,5.11c1.36,1.36,3.04,2.06,5.05,2.06S270.61,83.12,271.97,81.75z"/>
	<path class="st2" d="M294.76,86.31c0.2,0.32,0.15,0.46-0.23,0.46h-2.76c-0.29,0-0.55-0.15-0.75-0.44l-4.47-6.56H284v6.56
		c0,0.29-0.15,0.44-0.43,0.44h-2.47c-0.29,0-0.43-0.15-0.43-0.44V66.9c0-0.29,0.14-0.44,0.43-0.44h6.76c1.97,0,3.57,0.64,4.81,1.91
		c1.25,1.25,1.86,2.84,1.86,4.73c0,1.68-0.49,3.07-1.48,4.15s-2,1.74-3.04,2.03L294.76,86.31z M284,69.48v7.28h3.13
		c2.52,0,4.06-1.54,4.06-3.65c0-2.09-1.54-3.63-4.06-3.63H284z"/>
</g>
</svg>
